<svg width="16" height="16" viewBox="0 0 16 16" fill="none" xmlns="http://www.w3.org/2000/svg">
    <rect x="0.5" y="0.5" width="15" height="15" rx="7.5" stroke="#B9CAAD"/>
    <path d="M8.50195 10.5013V10.2445C8.50195 9.91883 8.55831 9.63072 8.68358 9.36767C8.80884 9.10461 8.95916 8.89793 9.14705 8.74135C9.32869 8.59103 9.52911 8.42193 9.74832 8.24029C9.96753 8.06492 10.168 7.88956 10.3559 7.71419C10.5375 7.54508 10.6878 7.31334 10.8131 7.01897C10.9383 6.7246 11.001 6.38639 11.001 6.0106C11.001 5.35296 10.7316 4.78301 10.1993 4.30075C9.66064 3.81848 8.99047 3.57422 8.17626 3.57422C7.75036 3.57422 7.35578 3.64938 7.00504 3.79969C6.64804 3.95001 6.37246 4.11912 6.1783 4.29449C5.99041 4.47612 5.8213 4.6828 5.67725 4.91454C5.53946 5.15254 5.45177 5.31538 5.42046 5.40307C5.3954 5.49702 5.37035 5.57218 5.35156 5.62854L6.18457 5.88534L6.22215 5.72876C6.25972 5.63481 6.32236 5.52207 6.41004 5.38428C6.49773 5.24649 6.61046 5.1087 6.74825 4.97091C6.88604 4.83312 7.0802 4.72038 7.33073 4.62017C7.58126 4.51996 7.8631 4.46985 8.17 4.46985C8.73995 4.46985 9.1909 4.62017 9.52911 4.9208C9.86732 5.22144 10.0302 5.5847 10.0302 6.0106C10.0302 6.33002 9.94874 6.61813 9.77964 6.88118C9.61053 7.14424 9.40385 7.36971 9.15958 7.55761C8.91532 7.75176 8.67105 7.94592 8.42052 8.14635C8.17 8.34677 7.96331 8.60356 7.78794 8.90419C7.61884 9.21109 7.53115 9.5493 7.53115 9.92509C7.53115 10.1255 7.5562 10.3134 7.59378 10.5013H8.50195ZM7.40589 12.1673C7.40589 12.3552 7.46852 12.5118 7.58752 12.6308C7.70652 12.7498 7.85684 12.8062 8.04473 12.8062C8.23263 12.8062 8.38921 12.7498 8.50821 12.6308C8.62721 12.5118 8.68358 12.3552 8.68358 12.1673C8.68358 11.9794 8.62721 11.8291 8.50821 11.7101C8.38921 11.5911 8.23263 11.5285 8.04473 11.5285C7.85684 11.5285 7.70652 11.5911 7.58752 11.7101C7.46852 11.8291 7.40589 11.9794 7.40589 12.1673Z" fill="#B9CAAD"/>
</svg>
